<mxfile host="app.diagrams.net" agent="Mozilla/5.0 (Macintosh; Intel Mac OS X 10_15_7) AppleWebKit/537.36 (KHTML, like Gecko) Chrome/126.0.0.0 YaBrowser/24.7.0.0 Safari/537.36" version="24.7.14">
  <diagram name="Страница — 1" id="wMiGqEO-0glnp5uPPuF9">
    <mxGraphModel dx="901" dy="559" grid="1" gridSize="10" guides="1" tooltips="1" connect="1" arrows="1" fold="1" page="1" pageScale="1" pageWidth="827" pageHeight="1169" math="0" shadow="0">
      <root>
        <mxCell id="0" />
        <mxCell id="1" parent="0" />
        <mxCell id="3eMQQhsF8rKzgT2Fsook-15" style="edgeStyle=none;curved=1;rounded=0;orthogonalLoop=1;jettySize=auto;html=1;exitX=0.5;exitY=1;exitDx=0;exitDy=0;entryX=0.5;entryY=0;entryDx=0;entryDy=0;fontSize=12;startSize=8;endSize=24;endArrow=diamondThin;endFill=1;" edge="1" parent="1" source="0hbwr7sFHVuIhFMwDFJ_-1" target="3eMQQhsF8rKzgT2Fsook-5">
          <mxGeometry relative="1" as="geometry" />
        </mxCell>
        <mxCell id="0hbwr7sFHVuIhFMwDFJ_-1" value="Task" style="swimlane;fontStyle=1;align=center;verticalAlign=top;childLayout=stackLayout;horizontal=1;startSize=26;horizontalStack=0;resizeParent=1;resizeParentMax=0;resizeLast=0;collapsible=1;marginBottom=0;whiteSpace=wrap;html=1;" parent="1" vertex="1">
          <mxGeometry x="150" y="250" width="160" height="144" as="geometry" />
        </mxCell>
        <mxCell id="0hbwr7sFHVuIhFMwDFJ_-2" value="+ name: string&lt;div&gt;+ description: string&lt;/div&gt;&lt;div&gt;+ status: string&lt;/div&gt;&lt;div&gt;+ dueTo: DateTime&lt;/div&gt;&lt;div&gt;+ assignee: Tester&lt;/div&gt;" style="text;strokeColor=none;fillColor=none;align=left;verticalAlign=top;spacingLeft=4;spacingRight=4;overflow=hidden;rotatable=0;points=[[0,0.5],[1,0.5]];portConstraint=eastwest;whiteSpace=wrap;html=1;" parent="0hbwr7sFHVuIhFMwDFJ_-1" vertex="1">
          <mxGeometry y="26" width="160" height="84" as="geometry" />
        </mxCell>
        <mxCell id="0hbwr7sFHVuIhFMwDFJ_-3" value="" style="line;strokeWidth=1;fillColor=none;align=left;verticalAlign=middle;spacingTop=-1;spacingLeft=3;spacingRight=3;rotatable=0;labelPosition=right;points=[];portConstraint=eastwest;strokeColor=inherit;" parent="0hbwr7sFHVuIhFMwDFJ_-1" vertex="1">
          <mxGeometry y="110" width="160" height="8" as="geometry" />
        </mxCell>
        <mxCell id="0hbwr7sFHVuIhFMwDFJ_-4" value="+ ToString( ): string" style="text;strokeColor=none;fillColor=none;align=left;verticalAlign=top;spacingLeft=4;spacingRight=4;overflow=hidden;rotatable=0;points=[[0,0.5],[1,0.5]];portConstraint=eastwest;whiteSpace=wrap;html=1;" parent="0hbwr7sFHVuIhFMwDFJ_-1" vertex="1">
          <mxGeometry y="118" width="160" height="26" as="geometry" />
        </mxCell>
        <mxCell id="3eMQQhsF8rKzgT2Fsook-14" style="edgeStyle=orthogonalEdgeStyle;rounded=0;orthogonalLoop=1;jettySize=auto;html=1;exitX=0.5;exitY=1;exitDx=0;exitDy=0;entryX=1;entryY=0.5;entryDx=0;entryDy=0;fontSize=12;startSize=8;endSize=24;endArrow=diamondThin;endFill=1;" edge="1" parent="1" source="3eMQQhsF8rKzgT2Fsook-1" target="3eMQQhsF8rKzgT2Fsook-6">
          <mxGeometry relative="1" as="geometry" />
        </mxCell>
        <mxCell id="3eMQQhsF8rKzgT2Fsook-1" value="Tester" style="swimlane;fontStyle=1;align=center;verticalAlign=top;childLayout=stackLayout;horizontal=1;startSize=26;horizontalStack=0;resizeParent=1;resizeParentMax=0;resizeLast=0;collapsible=1;marginBottom=0;whiteSpace=wrap;html=1;" vertex="1" parent="1">
          <mxGeometry x="380" y="250" width="160" height="70" as="geometry" />
        </mxCell>
        <mxCell id="3eMQQhsF8rKzgT2Fsook-2" value="+ name: string&lt;div&gt;&lt;br&gt;&lt;/div&gt;" style="text;strokeColor=none;fillColor=none;align=left;verticalAlign=top;spacingLeft=4;spacingRight=4;overflow=hidden;rotatable=0;points=[[0,0.5],[1,0.5]];portConstraint=eastwest;whiteSpace=wrap;html=1;" vertex="1" parent="3eMQQhsF8rKzgT2Fsook-1">
          <mxGeometry y="26" width="160" height="24" as="geometry" />
        </mxCell>
        <mxCell id="3eMQQhsF8rKzgT2Fsook-3" value="&#xa;&#xa;" style="line;strokeWidth=1;fillColor=none;align=left;verticalAlign=middle;spacingTop=-1;spacingLeft=3;spacingRight=3;rotatable=0;labelPosition=right;points=[];portConstraint=eastwest;strokeColor=inherit;" vertex="1" parent="3eMQQhsF8rKzgT2Fsook-1">
          <mxGeometry y="50" width="160" height="20" as="geometry" />
        </mxCell>
        <mxCell id="3eMQQhsF8rKzgT2Fsook-5" value="Tracker" style="swimlane;fontStyle=1;align=center;verticalAlign=top;childLayout=stackLayout;horizontal=1;startSize=26;horizontalStack=0;resizeParent=1;resizeParentMax=0;resizeLast=0;collapsible=1;marginBottom=0;whiteSpace=wrap;html=1;" vertex="1" parent="1">
          <mxGeometry x="130" y="441" width="200" height="170" as="geometry" />
        </mxCell>
        <mxCell id="3eMQQhsF8rKzgT2Fsook-6" value="- tasks: Dictionary&amp;lt;string, Task&amp;gt;&lt;div&gt;- testers: Dictionary&amp;lt;string, Tester&amp;gt;&lt;br&gt;&lt;/div&gt;" style="text;strokeColor=none;fillColor=none;align=left;verticalAlign=top;spacingLeft=4;spacingRight=4;overflow=hidden;rotatable=0;points=[[0,0.5],[1,0.5]];portConstraint=eastwest;whiteSpace=wrap;html=1;" vertex="1" parent="3eMQQhsF8rKzgT2Fsook-5">
          <mxGeometry y="26" width="200" height="44" as="geometry" />
        </mxCell>
        <mxCell id="3eMQQhsF8rKzgT2Fsook-7" value="" style="line;strokeWidth=1;fillColor=none;align=left;verticalAlign=middle;spacingTop=-1;spacingLeft=3;spacingRight=3;rotatable=0;labelPosition=right;points=[];portConstraint=eastwest;strokeColor=inherit;" vertex="1" parent="3eMQQhsF8rKzgT2Fsook-5">
          <mxGeometry y="70" width="200" height="8" as="geometry" />
        </mxCell>
        <mxCell id="3eMQQhsF8rKzgT2Fsook-8" value="+ AddTester(Tester)&lt;div&gt;+ AddTask(Task)&lt;/div&gt;&lt;div&gt;+ AssignTask(string, string): bool&lt;/div&gt;&lt;div&gt;+ SetStatus(string, string): bool&lt;/div&gt;&lt;div&gt;+ List(string): Task[ ]&lt;/div&gt;" style="text;strokeColor=none;fillColor=none;align=left;verticalAlign=top;spacingLeft=4;spacingRight=4;overflow=hidden;rotatable=0;points=[[0,0.5],[1,0.5]];portConstraint=eastwest;whiteSpace=wrap;html=1;" vertex="1" parent="3eMQQhsF8rKzgT2Fsook-5">
          <mxGeometry y="78" width="200" height="92" as="geometry" />
        </mxCell>
        <mxCell id="3eMQQhsF8rKzgT2Fsook-12" value="" style="endArrow=diamondThin;endFill=0;endSize=24;html=1;rounded=0;fontSize=12;curved=1;entryX=1.005;entryY=0.156;entryDx=0;entryDy=0;exitX=0;exitY=0.5;exitDx=0;exitDy=0;entryPerimeter=0;" edge="1" parent="1" source="3eMQQhsF8rKzgT2Fsook-2" target="0hbwr7sFHVuIhFMwDFJ_-2">
          <mxGeometry width="160" relative="1" as="geometry">
            <mxPoint x="239" y="404" as="sourcePoint" />
            <mxPoint x="240" y="451" as="targetPoint" />
          </mxGeometry>
        </mxCell>
      </root>
    </mxGraphModel>
  </diagram>
</mxfile>
